<svg width="356" height="166" viewBox="0 0 356 166" fill="none" xmlns="http://www.w3.org/2000/svg">
<path d="M0.76 139V49.4H18.168V139H0.76ZM30.885 139V74.872H48.293V139H30.885ZM30.885 60.92C30.885 56.312 34.725 52.216 39.717 52.216C44.325 52.216 48.421 56.312 48.421 60.92C48.421 65.912 44.325 69.752 39.717 69.752C34.725 69.752 30.885 65.912 30.885 60.92ZM60.257 139V75H76.129V77.432C79.841 75 84.321 73.976 88.801 73.976C106.849 73.976 117.345 84.216 117.345 102.264V139H99.937V102.52C99.937 96.376 94.945 91.384 88.801 91.384C82.785 91.384 78.049 95.736 77.665 101.752V139H60.257ZM144.665 107C144.665 115.96 151.577 122.872 160.409 122.872C169.241 122.872 176.153 115.96 176.153 107C176.153 98.04 169.241 91.128 160.409 91.128C151.577 91.128 144.665 98.04 144.665 107ZM177.177 75H193.689V165.24H176.281V135.928C171.673 138.488 166.425 140.024 160.409 140.024C142.361 140.024 127.385 125.048 127.385 107C127.385 88.952 142.361 73.976 160.409 73.976C167.065 73.976 172.569 75.768 177.177 78.328V75ZM206.26 139V49.4H223.668V139H206.26ZM288.767 75L257.919 165.496H239.359L250.623 133.496C250.751 133.24 250.751 132.856 250.751 132.344C250.751 131.96 250.751 131.576 250.623 131.32L231.039 75H249.727L259.711 109.304C259.839 109.432 259.839 109.432 259.839 109.56C259.839 109.688 259.839 109.816 259.967 109.816L260.223 109.56C260.223 109.432 260.223 109.432 260.351 109.304L270.335 75H288.767Z" fill="#FF442F"/>
<path fill-rule="evenodd" clip-rule="evenodd" d="M293 12C293 11.7275 293.009 11.457 293.027 11.189L301.734 19.854C301.717 20.122 301.707 20.3924 301.707 20.665V33.8733C301.707 40.5007 307.08 45.8733 313.707 45.8733H327.61C327.699 45.8733 327.789 45.8723 327.878 45.8703L336.564 54.5146C336.313 54.5303 336.06 54.5382 335.805 54.5382H305C298.373 54.5382 293 49.1656 293 42.5382V12ZM334.491 43.7055L342.983 52.1558C345.91 49.9676 347.805 46.4742 347.805 42.5382V12C347.805 5.37258 342.432 0 335.805 0H305C301.073 0 297.587 1.88629 295.398 4.80224L304.105 13.4672C306.294 10.5513 309.78 8.66495 313.707 8.66495H327.61C334.237 8.66495 339.61 14.0375 339.61 20.6649V33.8733C339.61 37.9406 337.586 41.5353 334.491 43.7055Z" fill="#FF442F"/>
<path d="M325.986 35.3598L335.512 35.3598L356 56.0673L346.268 56.0673L325.986 35.3598Z" fill="#FF442F"/>
<path fill-rule="evenodd" clip-rule="evenodd" d="M293.024 11.235L293.561 11.7207L293.027 11.1891C293.026 11.2044 293.025 11.2197 293.024 11.235ZM334.339 52.3001L336.516 54.5175C336.532 54.5165 336.548 54.5156 336.564 54.5146L334.339 52.3001ZM342.982 52.1558L334.491 43.7055C337.586 41.5353 339.61 37.9406 339.61 33.8733V20.6649C339.61 14.0375 334.237 8.66495 327.61 8.66495H313.707C309.78 8.66495 306.294 10.5513 304.105 13.4672L295.397 4.80225C297.587 1.8863 301.073 0 305 0H335.805C342.432 0 347.805 5.37258 347.805 12V42.5382C347.805 46.4742 345.91 49.9676 342.982 52.1558Z" fill="black"/>
<path d="M325.985 35.3598L335.512 35.3598L356 56.0673L346.268 56.0673L325.985 35.3598Z" fill="black"/>
</svg>
